<mxfile host="app.diagrams.net" agent="Mozilla/5.0 (Windows NT 10.0; Win64; x64) AppleWebKit/537.36 (KHTML, like Gecko) Chrome/140.0.0.0 Safari/537.36" version="28.2.5">
  <diagram name="Страница — 1" id="JGODWtKIiPpssiN6FMZU">
    <mxGraphModel dx="1281" dy="562" grid="1" gridSize="10" guides="1" tooltips="1" connect="1" arrows="1" fold="1" page="1" pageScale="1" pageWidth="1169" pageHeight="827" math="0" shadow="0">
      <root>
        <mxCell id="0" />
        <mxCell id="1" parent="0" />
        <mxCell id="eOkM366-y2GCSP8K9DWW-1" value="&lt;p style=&quot;margin:0px;margin-top:4px;text-align:center;&quot;&gt;&lt;b&gt;Originator&lt;/b&gt;&lt;/p&gt;&lt;p style=&quot;margin:0px;margin-top:4px;text-align:center;&quot;&gt;&lt;b&gt;(UserProfileSettings)&lt;/b&gt;&lt;/p&gt;&lt;hr size=&quot;1&quot; style=&quot;border-style:solid;&quot;&gt;&lt;p style=&quot;margin:0px;margin-left:4px;&quot;&gt;+ String name;&lt;/p&gt;&lt;p style=&quot;margin:0px;margin-left:4px;&quot;&gt;+ int age;&lt;/p&gt;&lt;p style=&quot;margin:0px;margin-left:4px;&quot;&gt;+ String city;&lt;/p&gt;&lt;hr size=&quot;1&quot; style=&quot;border-style:solid;&quot;&gt;&lt;p style=&quot;margin:0px;margin-left:4px;&quot;&gt;+ setSettings(UserProfileMemento memento);&lt;/p&gt;&lt;p style=&quot;margin:0px;margin-left:4px;&quot;&gt;+&amp;nbsp;&lt;span style=&quot;background-color: transparent; color: light-dark(rgb(0, 0, 0), rgb(255, 255, 255));&quot;&gt;UserProfileMemento saveSettings();&lt;/span&gt;&lt;/p&gt;&lt;p style=&quot;margin:0px;margin-left:4px;&quot;&gt;&lt;span style=&quot;background-color: transparent; color: light-dark(rgb(0, 0, 0), rgb(255, 255, 255));&quot;&gt;+ restoreSettigs(&lt;/span&gt;&lt;span style=&quot;background-color: transparent; color: light-dark(rgb(0, 0, 0), rgb(255, 255, 255));&quot;&gt;UserProfileMemento memento);&lt;/span&gt;&lt;/p&gt;" style="verticalAlign=top;align=left;overflow=fill;html=1;whiteSpace=wrap;" vertex="1" parent="1">
          <mxGeometry x="160" y="120" width="240" height="190" as="geometry" />
        </mxCell>
        <mxCell id="eOkM366-y2GCSP8K9DWW-2" value="&lt;p style=&quot;margin:0px;margin-top:4px;text-align:center;&quot;&gt;&lt;b&gt;Memento&lt;/b&gt;&lt;/p&gt;&lt;p style=&quot;margin:0px;margin-top:4px;text-align:center;&quot;&gt;&lt;b&gt;(UserProfileMemento)&lt;/b&gt;&lt;/p&gt;&lt;hr size=&quot;1&quot; style=&quot;border-style:solid;&quot;&gt;&lt;p style=&quot;margin: 0px 0px 0px 4px;&quot;&gt;+ String name;&lt;/p&gt;&lt;p style=&quot;margin: 0px 0px 0px 4px;&quot;&gt;+ int age;&lt;/p&gt;&lt;p style=&quot;margin: 0px 0px 0px 4px;&quot;&gt;+ String city;&lt;/p&gt;&lt;hr size=&quot;1&quot; style=&quot;border-style:solid;&quot;&gt;&lt;p style=&quot;margin:0px;margin-left:4px;&quot;&gt;+&amp;nbsp;&lt;b style=&quot;background-color: transparent; color: light-dark(rgb(0, 0, 0), rgb(255, 255, 255)); text-align: center;&quot;&gt;UserProfileMemento(String name, i&lt;/b&gt;&lt;span style=&quot;background-color: transparent; color: light-dark(rgb(0, 0, 0), rgb(255, 255, 255));&quot;&gt;nt age,&amp;nbsp;&lt;/span&gt;&lt;span style=&quot;background-color: transparent; color: light-dark(rgb(0, 0, 0), rgb(255, 255, 255));&quot;&gt;String city);&lt;/span&gt;&lt;/p&gt;&lt;p style=&quot;margin:0px;margin-left:4px;&quot;&gt;&lt;span style=&quot;background-color: transparent; color: light-dark(rgb(0, 0, 0), rgb(255, 255, 255));&quot;&gt;+ getName();&lt;/span&gt;&lt;/p&gt;&lt;p style=&quot;margin:0px;margin-left:4px;&quot;&gt;&lt;span style=&quot;background-color: transparent; color: light-dark(rgb(0, 0, 0), rgb(255, 255, 255));&quot;&gt;+ getAge();&lt;/span&gt;&lt;/p&gt;&lt;p style=&quot;margin:0px;margin-left:4px;&quot;&gt;&lt;span style=&quot;background-color: transparent; color: light-dark(rgb(0, 0, 0), rgb(255, 255, 255));&quot;&gt;+ getCity();&lt;/span&gt;&lt;/p&gt;&lt;p style=&quot;margin:0px;margin-left:4px;&quot;&gt;&lt;span style=&quot;background-color: transparent; color: light-dark(rgba(0, 0, 0, 0), rgba(237, 237, 237, 0)); font-family: monospace; font-size: 0px; text-wrap-mode: nowrap;&quot;&gt;+%3CmxGraphModel%3E%3Croot%3E%3CmxCell%20id%3D%220%22%2F%3E%3CmxCell%20id%3D%221%22%20parent%3D%220%22%2F%3E%3CmxCell%20id%3D%222%22%20value%3D%22%26lt%3Bp%20style%3D%26quot%3Bmargin%3A0px%3Bmargin-top%3A4px%3Btext-align%3Acenter%3B%26quot%3B%26gt%3B%26lt%3Bb%26gt%3BOriginator%26lt%3B%2Fb%26gt%3B%26lt%3B%2Fp%26gt%3B%26lt%3Bp%20style%3D%26quot%3Bmargin%3A0px%3Bmargin-top%3A4px%3Btext-align%3Acenter%3B%26quot%3B%26gt%3B%26lt%3Bb%26gt%3B(UserProfileSettings)%26lt%3B%2Fb%26gt%3B%26lt%3B%2Fp%26gt%3B%26lt%3Bhr%20size%3D%26quot%3B1%26quot%3B%20style%3D%26quot%3Bborder-style%3Asolid%3B%26quot%3B%26gt%3B%26lt%3Bp%20style%3D%26quot%3Bmargin%3A0px%3Bmargin-left%3A4px%3B%26quot%3B%26gt%3B%2B%20name%3B%26lt%3B%2Fp%26gt%3B%26lt%3Bp%20style%3D%26quot%3Bmargin%3A0px%3Bmargin-left%3A4px%3B%26quot%3B%26gt%3B%2B%20age%3B%26lt%3B%2Fp%26gt%3B%26lt%3Bp%20style%3D%26quot%3Bmargin%3A0px%3Bmargin-left%3A4px%3B%26quot%3B%26gt%3B%2B%20city%3B%26lt%3B%2Fp%26gt%3B%26lt%3Bhr%20size%3D%26quot%3B1%26quot%3B%20style%3D%26quot%3Bborder-style%3Asolid%3B%26quot%3B%26gt%3B%26lt%3Bp%20style%3D%26quot%3Bmargin%3A0px%3Bmargin-left%3A4px%3B%26quot%3B%26gt%3B%2B%20setSettings(UserProfileMemento%20memento)%3B%26lt%3B%2Fp%26gt%3B%26lt%3Bp%20style%3D%26quot%3Bmargin%3A0px%3Bmargin-left%3A4px%3B%26quot%3B%26gt%3B%2B%26amp%3Bnbsp%3B%26lt%3Bspan%20style%3D%26quot%3Bbackground-color%3A%20transparent%3B%20color%3A%20light-dark(rgb(0%2C%200%2C%200)%2C%20rgb(255%2C%20255%2C%20255))%3B%26quot%3B%26gt%3BUserProfileMemento%20saveSettings()%3B%26lt%3B%2Fspan%26gt%3B%26lt%3B%2Fp%26gt%3B%26lt%3Bp%20style%3D%26quot%3Bmargin%3A0px%3Bmargin-left%3A4px%3B%26quot%3B%26gt%3B%26lt%3Bspan%20style%3D%26quot%3Bbackground-color%3A%20transparent%3B%20color%3A%20light-dark(rgb(0%2C%200%2C%200)%2C%20rgb(255%2C%20255%2C%20255))%3B%26quot%3B%26gt%3B%2B%20restoreSettigs(%26lt%3B%2Fspan%26gt%3B%26lt%3Bspan%20style%3D%26quot%3Bbackground-color%3A%20transparent%3B%20color%3A%20light-dark(rgb(0%2C%200%2C%200)%2C%20rgb(255%2C%20255%2C%20255))%3B%26quot%3B%26gt%3BUserProfileMemento%20memento)%3B%26lt%3B%2Fspan%26gt%3B%26lt%3B%2Fp%26gt%3B%22%20style%3D%22verticalAlign%3Dtop%3Balign%3Dleft%3Boverflow%3Dfill%3Bhtml%3D1%3BwhiteSpace%3Dwrap%3B%22%20vertex%3D%221%22%20parent%3D%221%22%3E%3CmxGeometry%20x%3D%22160%22%20y%3D%22120%22%20width%3D%22240%22%20height%3D%22190%22%20as%3D%22geometry%22%2F%3E%3C%2FmxCell%3E%3C%2Froot%3E%3C%2FmxGraphModel%3E&lt;/span&gt;&lt;/p&gt;" style="verticalAlign=top;align=left;overflow=fill;html=1;whiteSpace=wrap;" vertex="1" parent="1">
          <mxGeometry x="480" y="120" width="240" height="190" as="geometry" />
        </mxCell>
        <mxCell id="eOkM366-y2GCSP8K9DWW-3" value="&lt;p style=&quot;margin:0px;margin-top:4px;text-align:center;&quot;&gt;&lt;b&gt;Caretaker&lt;/b&gt;&lt;/p&gt;&lt;p style=&quot;margin:0px;margin-top:4px;text-align:center;&quot;&gt;&lt;b&gt;(UserProfileHistory)&lt;/b&gt;&lt;/p&gt;&lt;hr size=&quot;1&quot; style=&quot;border-style:solid;&quot;&gt;&lt;p style=&quot;margin: 0px 0px 0px 4px;&quot;&gt;+ Stack&amp;lt;UserProfileSettings.UserProfileMemento&amp;gt; history;&lt;/p&gt;&lt;hr size=&quot;1&quot; style=&quot;border-style:solid;&quot;&gt;&lt;p style=&quot;margin: 0px 0px 0px 4px;&quot;&gt;+ &lt;b&gt;save();&lt;/b&gt;&lt;/p&gt;&lt;p style=&quot;margin: 0px 0px 0px 4px;&quot;&gt;&lt;b&gt;+ restore();&lt;/b&gt;&lt;/p&gt;&lt;p style=&quot;margin:0px;margin-left:4px;&quot;&gt;&lt;span style=&quot;background-color: transparent; color: light-dark(rgba(0, 0, 0, 0), rgba(237, 237, 237, 0)); font-family: monospace; font-size: 0px; text-wrap-mode: nowrap;&quot;&gt;+%3CmxGraphModel%3E%3Croot%3E%3CmxCell%20id%3D%220%22%2F%3E%3CmxCell%20id%3D%221%22%20parent%3D%220%22%2F%3E%3CmxCell%20id%3D%222%22%20value%3D%22%26lt%3Bp%20style%3D%26quot%3Bmargin%3A0px%3Bmargin-top%3A4px%3Btext-align%3Acenter%3B%26quot%3B%26gt%3B%26lt%3Bb%26gt%3BOriginator%26lt%3B%2Fb%26gt%3B%26lt%3B%2Fp%26gt%3B%26lt%3Bp%20style%3D%26quot%3Bmargin%3A0px%3Bmargin-top%3A4px%3Btext-align%3Acenter%3B%26quot%3B%26gt%3B%26lt%3Bb%26gt%3B(UserProfileSettings)%26lt%3B%2Fb%26gt%3B%26lt%3B%2Fp%26gt%3B%26lt%3Bhr%20size%3D%26quot%3B1%26quot%3B%20style%3D%26quot%3Bborder-style%3Asolid%3B%26quot%3B%26gt%3B%26lt%3Bp%20style%3D%26quot%3Bmargin%3A0px%3Bmargin-left%3A4px%3B%26quot%3B%26gt%3B%2B%20name%3B%26lt%3B%2Fp%26gt%3B%26lt%3Bp%20style%3D%26quot%3Bmargin%3A0px%3Bmargin-left%3A4px%3B%26quot%3B%26gt%3B%2B%20age%3B%26lt%3B%2Fp%26gt%3B%26lt%3Bp%20style%3D%26quot%3Bmargin%3A0px%3Bmargin-left%3A4px%3B%26quot%3B%26gt%3B%2B%20city%3B%26lt%3B%2Fp%26gt%3B%26lt%3Bhr%20size%3D%26quot%3B1%26quot%3B%20style%3D%26quot%3Bborder-style%3Asolid%3B%26quot%3B%26gt%3B%26lt%3Bp%20style%3D%26quot%3Bmargin%3A0px%3Bmargin-left%3A4px%3B%26quot%3B%26gt%3B%2B%20setSettings(UserProfileMemento%20memento)%3B%26lt%3B%2Fp%26gt%3B%26lt%3Bp%20style%3D%26quot%3Bmargin%3A0px%3Bmargin-left%3A4px%3B%26quot%3B%26gt%3B%2B%26amp%3Bnbsp%3B%26lt%3Bspan%20style%3D%26quot%3Bbackground-color%3A%20transparent%3B%20color%3A%20light-dark(rgb(0%2C%200%2C%200)%2C%20rgb(255%2C%20255%2C%20255))%3B%26quot%3B%26gt%3BUserProfileMemento%20saveSettings()%3B%26lt%3B%2Fspan%26gt%3B%26lt%3B%2Fp%26gt%3B%26lt%3Bp%20style%3D%26quot%3Bmargin%3A0px%3Bmargin-left%3A4px%3B%26quot%3B%26gt%3B%26lt%3Bspan%20style%3D%26quot%3Bbackground-color%3A%20transparent%3B%20color%3A%20light-dark(rgb(0%2C%200%2C%200)%2C%20rgb(255%2C%20255%2C%20255))%3B%26quot%3B%26gt%3B%2B%20restoreSettigs(%26lt%3B%2Fspan%26gt%3B%26lt%3Bspan%20style%3D%26quot%3Bbackground-color%3A%20transparent%3B%20color%3A%20light-dark(rgb(0%2C%200%2C%200)%2C%20rgb(255%2C%20255%2C%20255))%3B%26quot%3B%26gt%3BUserProfileMemento%20memento)%3B%26lt%3B%2Fspan%26gt%3B%26lt%3B%2Fp%26gt%3B%22%20style%3D%22verticalAlign%3Dtop%3Balign%3Dleft%3Boverflow%3Dfill%3Bhtml%3D1%3BwhiteSpace%3Dwrap%3B%22%20vertex%3D%221%22%20parent%3D%221%22%3E%3CmxGeometry%20x%3D%22160%22%20y%3D%22120%22%20width%3D%22240%22%20height%3D%22190%22%20as%3D%22geometry%22%2F%3E%3C%2FmxCell%3E%3C%2Froot%3E%3C%2FmxGraphModel%3E&lt;/span&gt;&lt;/p&gt;" style="verticalAlign=top;align=left;overflow=fill;html=1;whiteSpace=wrap;" vertex="1" parent="1">
          <mxGeometry x="800" y="120" width="280" height="190" as="geometry" />
        </mxCell>
        <mxCell id="eOkM366-y2GCSP8K9DWW-8" value="1" style="endArrow=open;html=1;endSize=12;startArrow=diamondThin;startSize=14;startFill=0;edgeStyle=orthogonalEdgeStyle;align=left;verticalAlign=bottom;rounded=0;exitX=0;exitY=0.25;exitDx=0;exitDy=0;entryX=1;entryY=0.25;entryDx=0;entryDy=0;" edge="1" parent="1" source="eOkM366-y2GCSP8K9DWW-3" target="eOkM366-y2GCSP8K9DWW-2">
          <mxGeometry x="-1" y="3" relative="1" as="geometry">
            <mxPoint x="650" y="380" as="sourcePoint" />
            <mxPoint x="810" y="380" as="targetPoint" />
          </mxGeometry>
        </mxCell>
        <mxCell id="eOkM366-y2GCSP8K9DWW-10" value="" style="endArrow=none;dashed=1;html=1;dashPattern=1 3;strokeWidth=2;rounded=0;" edge="1" parent="1">
          <mxGeometry width="50" height="50" relative="1" as="geometry">
            <mxPoint x="120" y="360" as="sourcePoint" />
            <mxPoint x="120" y="360" as="targetPoint" />
            <Array as="points">
              <mxPoint x="120" y="80" />
              <mxPoint x="760" y="80" />
              <mxPoint x="760" y="360" />
            </Array>
          </mxGeometry>
        </mxCell>
        <mxCell id="eOkM366-y2GCSP8K9DWW-11" value="1" style="endArrow=open;html=1;endSize=12;startArrow=diamondThin;startSize=14;startFill=1;edgeStyle=orthogonalEdgeStyle;align=left;verticalAlign=bottom;rounded=0;exitX=1;exitY=0.5;exitDx=0;exitDy=0;entryX=0;entryY=0.5;entryDx=0;entryDy=0;" edge="1" parent="1" source="eOkM366-y2GCSP8K9DWW-1" target="eOkM366-y2GCSP8K9DWW-2">
          <mxGeometry x="-1" y="3" relative="1" as="geometry">
            <mxPoint x="500" y="290" as="sourcePoint" />
            <mxPoint x="660" y="290" as="targetPoint" />
          </mxGeometry>
        </mxCell>
      </root>
    </mxGraphModel>
  </diagram>
</mxfile>
